<svg width="149" height="19" viewBox="0 0 149 19" fill="none" xmlns="http://www.w3.org/2000/svg">
<path d="M0.625 0.799999H5.825L10.125 9.15L14.325 0.799999H19.525V18H14.325V8.825L11.15 14.825H9.025L5.825 8.825V18H0.625V0.799999ZM26.043 0.799999H33.643L38.618 18H32.743L32.093 14.7H27.643L26.918 18H21.293L26.043 0.799999ZM31.493 11.625L29.868 4.1L28.168 11.625H31.493ZM53.2984 18.4C50.1651 18.4 48.2484 16.95 47.5484 14.05L46.9234 11.475H45.7484V18H40.2734V0.799999H47.8484C49.2818 0.799999 50.5401 1.01667 51.6234 1.45C52.7234 1.86667 53.5734 2.45833 54.1734 3.225C54.7734 3.99167 55.0734 4.875 55.0734 5.875C55.0734 6.99167 54.7984 7.93333 54.2484 8.7C53.7151 9.45 52.8818 10.0667 51.7484 10.55C51.8651 11.1833 51.9984 11.7583 52.1484 12.275C52.3484 12.9083 52.6234 13.35 52.9734 13.6C53.3234 13.85 53.8318 13.975 54.4984 13.975C54.7318 13.975 55.0984 13.9417 55.5984 13.875V17.95C54.8151 18.25 54.0484 18.4 53.2984 18.4ZM46.6984 7.975C47.9318 7.975 48.7984 7.84167 49.2984 7.575C49.8151 7.29167 50.0734 6.81667 50.0734 6.15C50.0734 5.58333 49.8651 5.175 49.4484 4.925C49.0318 4.65833 48.3734 4.525 47.4734 4.525H45.7484V7.975H46.6984ZM57.7295 0.799999H63.5295V7.825H65.3295L68.6545 0.799999H74.4295V1.925L70.4795 9.325L75.0045 16.875V18H68.9295L65.2295 11.175H63.5295V18H57.7295V0.799999ZM76.8945 0.799999H88.9695V4.6H82.9695V7.725H88.4445V10.875H82.9695V14.2H88.9695V18H76.8945V0.799999ZM94.4377 4.6H90.8627V0.799999H103.838V4.6H100.263V18H94.4377V4.6ZM106.191 0.799999H111.966V18H106.191V0.799999ZM115.225 0.799999H120.25L127.1 10.075V0.799999H131.575V18H126.575L119.675 9.05V18H115.225V0.799999ZM142.829 18.4C141.146 18.4 139.629 18 138.279 17.2C136.929 16.3833 135.871 15.275 135.104 13.875C134.337 12.475 133.954 10.9333 133.954 9.25C133.954 7.63333 134.337 6.15 135.104 4.8C135.887 3.45 136.971 2.38333 138.354 1.6C139.737 0.816666 141.312 0.425 143.079 0.425C144.046 0.425 144.979 0.533333 145.879 0.749999C146.796 0.966665 147.621 1.275 148.354 1.675L146.704 5.55C145.571 5.08333 144.512 4.85 143.529 4.85C142.246 4.85 141.254 5.26667 140.554 6.1C139.854 6.91667 139.504 7.99167 139.504 9.325C139.504 10.1917 139.662 10.975 139.979 11.675C140.296 12.3583 140.737 12.9 141.304 13.3C141.887 13.7 142.546 13.9 143.279 13.9C143.679 13.9 144.012 13.8667 144.279 13.8V9.775L148.604 9.275V17.1C146.721 17.9667 144.796 18.4 142.829 18.4Z" fill="white"/>
</svg>
